# xmcd
#
# Track frame offsets:
#	150
#	16457
#	37572
#	55309
#	73387
#	92956
#	109569
#	131143
#	146208
#	178072
#	198806
#	216647
#	231471
#	255141
#	276854
#	299803
#	316857
#	332579
#
# Disc length: 4710 seconds
#
# Revision: 0
# Processed by: cddbd v1.5.2PL0 Copyright (c) Steve Scherf et al.
# Submitted via: dBpowerAMP V4.0
#
DISCID=1c126412
DTITLE=taylor - becky
DYEAR=1900
DGENRE=
TTITLE0=taylor
TTITLE1=taylor
TTITLE2=taylor
TTITLE3=taylor
TTITLE4=taylor
TTITLE5=taylor
TTITLE6=taylor
TTITLE7=taylor
TTITLE8=taylor
TTITLE9=taylor
TTITLE10=taylor
TTITLE11=taylor
TTITLE12=taylor
TTITLE13=taylor
TTITLE14=taylor
TTITLE15=taylor
TTITLE16=taylor
TTITLE17=taylor
EXTD=
EXTT0=
EXTT1=
EXTT2=
EXTT3=
EXTT4=
EXTT5=
EXTT6=
EXTT7=
EXTT8=
EXTT9=
EXTT10=
EXTT11=
EXTT12=
EXTT13=
EXTT14=
EXTT15=
EXTT16=
EXTT17=
PLAYORDER=
